<svg width="717" height="717" viewBox="0 0 717 717" fill="none" xmlns="http://www.w3.org/2000/svg">
<circle cx="358.5" cy="358.5" r="358.5" fill="#FF88EC"/>
<path fill-rule="evenodd" clip-rule="evenodd" d="M261.74 331.461C246.692 331.461 234.493 343.686 234.493 358.766C234.493 373.847 246.692 386.072 261.74 386.072C276.788 386.072 288.987 373.847 288.987 358.766C288.987 343.686 276.788 331.461 261.74 331.461ZM211.897 358.766C211.897 331.181 234.213 308.818 261.74 308.818C289.267 308.818 311.582 331.181 311.582 358.766C311.582 386.352 289.267 408.715 261.74 408.715C234.213 408.715 211.897 386.352 211.897 358.766Z" fill="#FCF9F6"/>
<path fill-rule="evenodd" clip-rule="evenodd" d="M397.977 313.48V372.065C397.977 392.371 381.562 408.848 361.293 408.848C341.024 408.848 324.609 392.371 324.609 372.065V313.48H347.204V372.065C347.204 379.883 353.521 386.205 361.293 386.205C369.065 386.205 375.382 379.883 375.382 372.065L375.382 313.48L397.977 313.48Z" fill="#FCF9F6"/>
<path fill-rule="evenodd" clip-rule="evenodd" d="M448.749 313.48V372.065C448.749 392.371 432.334 408.848 412.065 408.848C391.797 408.848 375.381 392.371 375.381 372.065V313.48H397.977V372.065C397.977 379.883 404.293 386.205 412.065 386.205C419.838 386.205 426.154 379.883 426.154 372.065L426.154 313.48L448.749 313.48Z" fill="#FCF9F6"/>
<path fill-rule="evenodd" clip-rule="evenodd" d="M624.326 331.461C609.278 331.461 597.079 343.686 597.079 358.766H574.483C574.483 331.181 596.799 308.818 624.326 308.818V331.461Z" fill="#FCF9F6"/>
<path fill-rule="evenodd" clip-rule="evenodd" d="M574.484 403.52L574.484 358.766L597.08 358.766L597.08 403.52L574.484 403.52Z" fill="#FCF9F6"/>
<path fill-rule="evenodd" clip-rule="evenodd" d="M153.817 331.461C138.769 331.461 126.57 343.686 126.57 358.766C126.57 373.847 138.769 386.072 153.817 386.072C168.865 386.072 181.064 373.847 181.064 358.766C181.064 343.686 168.865 331.461 153.817 331.461ZM103.975 358.766C103.975 331.181 126.29 308.818 153.817 308.818C181.344 308.818 203.659 331.181 203.659 358.766C203.659 386.352 181.344 408.715 153.817 408.715C126.29 408.715 103.975 386.352 103.975 358.766Z" fill="#FCF9F6"/>
<path fill-rule="evenodd" clip-rule="evenodd" d="M103.976 390.201L103.976 358.766L126.571 358.766L126.571 390.201L103.976 390.201Z" fill="#FCF9F6"/>
<path fill-rule="evenodd" clip-rule="evenodd" d="M92.6741 426.404C102.946 411.451 103.974 396.603 103.974 390.201L126.569 390.201C126.569 398.953 125.18 419.016 111.286 439.243L92.6741 426.404Z" fill="#FCF9F6"/>
<path fill-rule="evenodd" clip-rule="evenodd" d="M561.461 326.799L561.461 358.766L538.866 358.766L538.866 326.799L561.461 326.799Z" fill="#FCF9F6"/>
<path fill-rule="evenodd" clip-rule="evenodd" d="M511.616 386.205C526.664 386.205 538.863 373.98 538.863 358.9C538.863 343.819 526.664 331.594 511.616 331.594C496.568 331.594 484.369 343.819 484.369 358.9C484.369 373.98 496.568 386.205 511.616 386.205ZM561.459 358.9C561.458 386.485 539.143 408.848 511.616 408.848C484.089 408.848 461.774 386.485 461.774 358.9C461.774 331.314 484.089 308.951 511.616 308.951C539.143 308.951 561.459 331.314 561.459 358.9Z" fill="#FCF9F6"/>
<path fill-rule="evenodd" clip-rule="evenodd" d="M572.76 290.596C562.489 305.549 561.461 320.397 561.461 326.799L538.866 326.799C538.866 318.047 540.254 297.984 554.149 277.757L572.76 290.596Z" fill="#FCF9F6"/>
</svg>
